<?xml version="1.0" encoding="UTF-8" standalone="no"?>
<!DOCTYPE svg PUBLIC "-//W3C//DTD SVG 1.1//EN" "http://www.w3.org/Graphics/SVG/1.1/DTD/svg11.dtd">
<!-- Created with Vectornator (http://vectornator.io/) -->
<svg height="100%" stroke-miterlimit="10" style="fill-rule:nonzero;clip-rule:evenodd;stroke-linecap:round;stroke-linejoin:round;" version="1.1" viewBox="0 0 286 153" width="100%" xml:space="preserve" xmlns="http://www.w3.org/2000/svg" xmlns:vectornator="http://vectornator.io" xmlns:xlink="http://www.w3.org/1999/xlink">
<defs/>
<g id="g8" vectornator:layerName="g8">
<g opacity="1" vectornator:layerName="g10">
<path d="M15.7813 103.812L17.552 98.7494L19.3733 103.812L15.7813 103.812ZM20.592 107.256C21.0267 108.393 21.2107 108.857 21.9787 108.857C22.7307 108.857 23.1653 108.204 23.1653 107.721C23.1653 107.324 23.0307 106.964 22.8147 106.395L19.6747 98.4387C19.572 98.1627 19.2053 97.216 19.1213 97.0614C18.7213 96.3214 18.1027 96.1147 17.5693 96.1147C17.1333 96.1147 16.7827 96.2867 16.516 96.476C16.116 96.752 15.948 97.2694 15.4973 98.4574L12.4227 106.465C12.1893 107.067 12.088 107.377 12.088 107.755C12.088 108.255 12.54 108.857 13.24 108.857C13.9933 108.857 14.1773 108.444 14.596 107.291L15.1627 105.741L20.0067 105.741L20.592 107.256" fill="#2197d5" fill-rule="nonzero" opacity="1" stroke="none" vectornator:layerName="path"/>
<path d="M34.8573 104.948C34.8573 104.328 34.6733 103.14 33.7547 102.4C33.12 101.884 32.4187 101.539 30.4307 101.056C29.1787 100.745 27.8413 100.436 27.8413 99.3347C27.8413 98.3534 28.9107 97.888 29.9293 97.888C31.4653 97.888 31.868 98.7494 32.068 99.1627C32.3853 99.8334 32.6013 100.281 33.2533 100.281C33.972 100.281 34.356 99.5934 34.356 99.128C34.356 98.4734 33.6547 96.1147 30.08 96.1147C27.256 96.1147 25.5853 97.4907 25.5853 99.5587C25.5853 100.764 26.1533 101.556 26.7547 102.056C27.2893 102.485 27.8747 102.779 29.628 103.209C31.1147 103.553 32.4853 103.881 32.4853 105.224C32.4853 106.481 31.1987 107.032 30.0453 107.032C28.376 107.032 27.8747 105.983 27.6747 105.483C27.3067 104.603 27.1227 104.139 26.4547 104.139C25.736 104.139 25.352 104.725 25.352 105.224C25.352 105.931 25.9867 108.857 30.1293 108.857C33.2373 108.857 34.8573 107.103 34.8573 104.948" fill="#2197d5" fill-rule="nonzero" opacity="1" stroke="none" vectornator:layerName="path"/>
<path d="M42.0227 107.032C40.3507 107.032 39.8493 105.983 39.6493 105.483C39.2827 104.603 39.0987 104.139 38.4307 104.139C37.7107 104.139 37.328 104.725 37.328 105.224C37.328 105.931 37.9613 108.857 42.1053 108.857C45.2133 108.857 46.8333 107.103 46.8333 104.948C46.8333 104.328 46.6507 103.14 45.7307 102.4C45.096 101.884 44.3947 101.539 42.4067 101.056C41.1533 100.745 39.8173 100.436 39.8173 99.3347C39.8173 98.3534 40.8867 97.888 41.9053 97.888C43.4427 97.888 43.8427 98.7494 44.044 99.1627C44.3613 99.8334 44.5787 100.281 45.2307 100.281C45.948 100.281 46.332 99.5934 46.332 99.128C46.332 98.4734 45.6307 96.1147 42.056 96.1147C39.2333 96.1147 37.5627 97.4907 37.5627 99.5587C37.5627 100.764 38.1293 101.556 38.732 102.056C39.2653 102.485 39.8493 102.779 41.604 103.209C43.092 103.553 44.4613 103.881 44.4613 105.224C44.4613 106.481 43.176 107.032 42.0227 107.032" fill="#2197d5" fill-rule="nonzero" opacity="1" stroke="none" vectornator:layerName="path"/>
<path d="M55.0347 98.0934C57.3893 98.0934 58.4253 100.075 58.4253 102.485C58.4253 106.499 55.7853 106.877 55.0173 106.877C53.8653 106.877 52.796 106.275 52.2267 105.224C51.776 104.397 51.6427 103.432 51.6427 102.485C51.6427 98.508 54.116 98.0934 55.0347 98.0934ZM55.0507 108.857C59.6453 108.857 60.8813 105.241 60.8813 102.469C60.8813 99.972 59.8467 96.1147 54.984 96.1147C50.992 96.1147 49.1867 98.9894 49.1867 102.537C49.1867 105.277 50.4573 108.857 55.0507 108.857" fill="#2197d5" fill-rule="nonzero" opacity="1" stroke="none" vectornator:layerName="path"/>
<path d="M69.0667 108.857C70.6693 108.857 71.5373 108.393 72.14 107.963C73.3427 107.084 73.9933 105.689 73.9933 104.76C73.9933 104.053 73.4267 103.673 72.9253 103.673C72.2067 103.673 71.988 104.26 71.8053 104.776C71.472 105.741 70.6867 106.877 68.9827 106.877C68.3973 106.877 67.528 106.757 66.8093 106.016C66.192 105.379 65.7747 104.363 65.7747 102.607C65.7747 99.4214 67.2613 98.0934 69.048 98.0934C70.1013 98.0934 71.0707 98.6787 71.572 99.6267C72.072 100.592 72.256 100.936 72.8747 100.936C73.6427 100.936 73.944 100.265 73.944 99.868C73.944 98.6787 72.5067 96.1147 69.0667 96.1147C65.708 96.1147 63.3187 98.5774 63.3187 102.503C63.3187 104.175 63.7533 105.809 64.8053 107.084C65.624 108.083 66.86 108.857 69.0667 108.857" fill="#2197d5" fill-rule="nonzero" opacity="1" stroke="none" vectornator:layerName="path"/>
<path d="M78.3013 108.857C78.7027 108.857 79.0027 108.669 79.1867 108.479C79.5053 108.135 79.4867 107.687 79.4867 106.791L79.4867 98.1814C79.4867 97.3027 79.5053 96.8374 79.1707 96.4934C78.936 96.252 78.6027 96.1147 78.2853 96.1147C77.8827 96.1147 77.5827 96.3214 77.4 96.5094C77.0813 96.8374 77.0813 97.2854 77.0813 98.1814L77.0813 106.791C77.0813 107.669 77.0653 108.168 77.4 108.479C77.6507 108.72 77.9853 108.857 78.3013 108.857" fill="#2197d5" fill-rule="nonzero" opacity="1" stroke="none" vectornator:layerName="path"/>
<path d="M87.672 98.7494L89.4933 103.812L85.9013 103.812L87.672 98.7494ZM83.3627 108.857C84.1133 108.857 84.2973 108.444 84.7147 107.291L85.2827 105.741L90.128 105.741L90.712 107.256C91.148 108.393 91.3307 108.857 92.1 108.857C92.8507 108.857 93.2853 108.204 93.2853 107.721C93.2853 107.324 93.1533 106.964 92.9347 106.395L89.7933 98.4387C89.6947 98.1627 89.3267 97.216 89.2427 97.0614C88.8413 96.3214 88.224 96.1147 87.688 96.1147C87.256 96.1147 86.904 96.2867 86.6373 96.476C86.236 96.752 86.0693 97.2694 85.6173 98.4574L82.544 106.465C82.3093 107.067 82.2093 107.377 82.2093 107.755C82.2093 108.255 82.66 108.857 83.3627 108.857" fill="#2197d5" fill-rule="nonzero" opacity="1" stroke="none" vectornator:layerName="path"/>
<path d="M94.9373 98.2494L97.144 98.2494L97.144 106.791C97.144 107.635 97.1267 108.168 97.46 108.496C97.6947 108.72 98.0293 108.857 98.3453 108.857C98.7307 108.857 99.0307 108.651 99.1987 108.496C99.5493 108.168 99.5493 107.635 99.5493 106.791L99.5493 98.2494L101.737 98.2494C102.423 98.2494 102.856 98.284 103.124 97.9907C103.292 97.8014 103.408 97.5614 103.408 97.2854C103.408 96.9574 103.259 96.7334 103.108 96.5787C102.856 96.2867 102.423 96.3214 101.737 96.3214L94.9373 96.3214C94.252 96.3214 93.82 96.2867 93.552 96.5787C93.368 96.7854 93.2667 97.0267 93.2667 97.2854C93.2667 97.6294 93.4173 97.836 93.568 97.9907C93.82 98.284 94.252 98.2494 94.9373 98.2494" fill="#2197d5" fill-rule="nonzero" opacity="1" stroke="none" vectornator:layerName="path"/>
<path d="M107.015 108.857C107.416 108.857 107.716 108.669 107.9 108.479C108.217 108.135 108.2 107.687 108.2 106.791L108.2 98.1814C108.2 97.3027 108.217 96.8374 107.884 96.4934C107.649 96.252 107.316 96.1147 106.999 96.1147C106.597 96.1147 106.296 96.3214 106.112 96.5094C105.795 96.8374 105.795 97.2854 105.795 98.1814L105.795 106.791C105.795 107.669 105.779 108.168 106.112 108.479C106.364 108.72 106.697 108.857 107.015 108.857" fill="#2197d5" fill-rule="nonzero" opacity="1" stroke="none" vectornator:layerName="path"/>
<path d="M117.055 106.877C115.901 106.877 114.832 106.275 114.264 105.224C113.812 104.397 113.68 103.432 113.68 102.485C113.68 98.508 116.153 98.0934 117.071 98.0934C119.427 98.0934 120.461 100.075 120.461 102.485C120.461 106.499 117.821 106.877 117.055 106.877ZM117.02 96.1147C113.028 96.1147 111.223 98.9894 111.223 102.537C111.223 105.277 112.493 108.857 117.088 108.857C121.681 108.857 122.919 105.241 122.919 102.469C122.919 99.972 121.883 96.1147 117.02 96.1147" fill="#2197d5" fill-rule="nonzero" opacity="1" stroke="none" vectornator:layerName="path"/>
<path d="M135.88 98.0774C135.88 97.2334 135.88 96.7854 135.58 96.476C135.361 96.252 135.045 96.1147 134.743 96.1147C134.344 96.1147 134.076 96.3214 133.908 96.4934C133.625 96.8027 133.625 97.4227 133.625 97.5614L133.625 104.88L128.981 97.612C128.763 97.2854 128.429 96.752 128.312 96.6134C128.061 96.3027 127.777 96.1147 127.293 96.1147C126.792 96.1147 126.491 96.3374 126.34 96.476C125.856 96.9054 125.856 97.2854 125.856 98.5774L125.856 106.912C125.856 107.739 125.873 108.168 126.156 108.496C126.375 108.737 126.691 108.857 126.992 108.857C127.393 108.857 127.677 108.651 127.828 108.496C128.128 108.187 128.112 107.755 128.112 106.912L128.112 100.212L132.656 107.324C133.441 108.565 133.692 108.857 134.443 108.857C136.031 108.857 135.88 107.136 135.88 106.327L135.88 98.0774" fill="#2197d5" fill-rule="nonzero" opacity="1" stroke="none" vectornator:layerName="path"/>
<path d="M7.83067 127.544C6.67733 127.544 5.608 126.94 5.04133 125.891C4.58933 125.063 4.456 124.099 4.456 123.151C4.456 119.173 6.928 118.76 7.84667 118.76C10.2027 118.76 11.2387 120.741 11.2387 123.151C11.2387 127.165 8.59867 127.544 7.83067 127.544ZM7.79733 116.78C3.804 116.78 2 119.656 2 123.204C2 125.943 3.26933 129.524 7.864 129.524C12.4587 129.524 13.6947 125.907 13.6947 123.135C13.6947 120.637 12.6573 116.78 7.79733 116.78" fill="#2197d5" fill-rule="nonzero" opacity="1" stroke="none" vectornator:layerName="path"/>
<path d="M23.3307 116.987L18.5707 116.987C17.552 116.987 17.2507 116.987 16.9 117.365C16.548 117.744 16.548 117.951 16.548 119.088L16.548 127.457C16.548 128.336 16.4987 129.524 17.752 129.524C19.072 129.524 18.9547 128.181 18.9547 127.457L18.9547 123.996L22.564 123.996C23.148 123.996 23.4827 123.961 23.7653 123.72C23.884 123.633 24.068 123.376 24.068 123.015C24.068 122.704 23.9 122.463 23.7827 122.344C23.5493 122.085 23.2147 122.067 22.564 122.067L18.9547 122.067L18.9547 118.915L23.3307 118.915C24 118.915 24.3507 118.915 24.6013 118.656C24.7853 118.468 24.8853 118.209 24.8853 117.951C24.8853 117.641 24.752 117.4 24.6013 117.245C24.3507 116.987 24 116.987 23.3307 116.987" fill="#2197d5" fill-rule="nonzero" opacity="1" stroke="none" vectornator:layerName="path"/>
<path d="M43.3933 124.22L43.3933 118.847C43.3933 117.968 43.3933 117.504 43.0747 117.16C42.8253 116.917 42.4907 116.78 42.1733 116.78C41.756 116.78 41.4547 117.004 41.288 117.176C40.9707 117.504 40.9867 117.951 40.9867 118.847L40.9867 124.409C40.9867 125.441 40.9547 127.544 38.3987 127.544C35.7587 127.544 35.7413 125.441 35.7413 124.357L35.7413 118.847C35.7413 117.968 35.7747 117.504 35.4413 117.16C35.2067 116.917 34.872 116.78 34.54 116.78C34.1213 116.78 33.82 117.004 33.6533 117.176C33.336 117.504 33.336 117.951 33.336 118.847L33.336 124.22C33.336 125.22 33.452 126.631 33.9707 127.509C35.0227 129.283 36.844 129.524 38.5653 129.524C43.3933 129.524 43.3933 125.7 43.3933 124.22" fill="#2197d5" fill-rule="nonzero" opacity="1" stroke="none" vectornator:layerName="path"/>
<path d="M54.1333 128.043C54.5507 128.715 54.9013 129.524 55.8867 129.524C56.64 129.524 57.056 129.059 57.056 128.473C57.056 127.975 56.672 127.32 56.356 126.837L52.9467 121.827L55.8867 118.951C56.356 118.485 56.456 118.124 56.456 117.831C56.456 117.4 56.0707 116.78 55.2867 116.78C54.7173 116.78 54.4013 117.125 54.0493 117.504L49.2707 122.619L49.2707 118.847C49.2707 118.003 49.2707 117.487 48.9373 117.141C48.72 116.917 48.3853 116.78 48.0693 116.78C47.684 116.78 47.384 116.969 47.2 117.141C46.8653 117.469 46.8653 118.02 46.8653 118.847L46.8653 127.457C46.8653 128.043 46.8813 128.525 47.0333 128.904C47.1653 129.249 47.6347 129.524 48.0853 129.524C48.4867 129.524 48.804 129.335 48.9707 129.127C49.2213 128.817 49.2707 128.301 49.2707 128.009L49.2707 125.46L51.2773 123.496L54.1333 128.043" fill="#2197d5" fill-rule="nonzero" opacity="1" stroke="none" vectornator:layerName="path"/>
<path d="M62.4507 118.915L64.7053 118.915C65.7253 118.915 66.2093 118.951 66.544 119.139C66.944 119.364 67.3293 119.828 67.3293 120.533C67.3293 122.257 65.524 122.273 64.6227 122.273L62.4507 122.273L62.4507 118.915ZM62.4507 124.048L63.3013 124.048C64.3547 124.048 64.94 124.237 66.1427 126.269L67.128 127.939C67.7133 128.921 68.0467 129.524 68.816 129.524C69.568 129.524 70.0027 128.991 70.0027 128.525C70.0027 128.025 69.3493 126.855 68.9987 126.252C68.4307 125.269 67.7293 124.323 66.744 123.755C67.5293 123.583 69.784 123.065 69.784 120.396C69.784 119.071 69.1333 118.072 68.2147 117.52C67.3787 117.021 66.36 116.987 65.4587 116.987L62.0667 116.987C61.1307 116.987 60.7307 117.004 60.396 117.365C60.044 117.763 60.044 118.003 60.044 119.088L60.044 127.457C60.044 128.421 60.044 129.524 61.2133 129.524C62.5173 129.524 62.4507 128.319 62.4507 127.457L62.4507 124.048" fill="#2197d5" fill-rule="nonzero" opacity="1" stroke="none" vectornator:layerName="path"/>
<path d="M75.7467 124.477L77.5173 119.416L79.3373 124.477L75.7467 124.477ZM80.5573 127.921C80.992 129.059 81.176 129.524 81.944 129.524C82.696 129.524 83.1307 128.871 83.1307 128.387C83.1307 127.991 82.996 127.629 82.78 127.061L79.6387 119.105C79.5387 118.829 79.1707 117.883 79.0867 117.727C78.6867 116.987 78.068 116.78 77.5333 116.78C77.0987 116.78 76.748 116.953 76.4813 117.141C76.08 117.417 75.9133 117.935 75.4627 119.121L72.388 127.131C72.1547 127.732 72.0533 128.043 72.0533 128.421C72.0533 128.921 72.5053 129.524 73.2067 129.524C73.9587 129.524 74.1427 129.111 74.56 127.957L75.128 126.408L79.972 126.408L80.5573 127.921" fill="#2197d5" fill-rule="nonzero" opacity="1" stroke="none" vectornator:layerName="path"/>
<path d="M87.0373 116.78C86.636 116.78 86.336 116.987 86.152 117.176C85.8347 117.504 85.8347 117.951 85.8347 118.847L85.8347 127.457C85.8347 128.336 85.8173 128.835 86.152 129.145C86.4027 129.387 86.7373 129.524 87.0533 129.524C87.456 129.524 87.756 129.335 87.94 129.145C88.2573 128.8 88.24 128.353 88.24 127.457L88.24 118.847C88.24 117.968 88.2573 117.504 87.9227 117.16C87.688 116.917 87.356 116.78 87.0373 116.78" fill="#2197d5" fill-rule="nonzero" opacity="1" stroke="none" vectornator:layerName="path"/>
<path d="M101.855 118.743C101.855 117.899 101.855 117.452 101.555 117.141C101.336 116.917 101.02 116.78 100.719 116.78C100.319 116.78 100.051 116.987 99.8827 117.16C99.6 117.469 99.6 118.088 99.6 118.227L99.6 125.545L94.956 118.277C94.7373 117.951 94.404 117.417 94.2867 117.28C94.036 116.969 93.752 116.78 93.268 116.78C92.7653 116.78 92.4653 117.004 92.316 117.141C91.8307 117.572 91.8307 117.951 91.8307 119.244L91.8307 127.577C91.8307 128.405 91.848 128.835 92.132 129.163C92.3493 129.403 92.6667 129.524 92.9667 129.524C93.368 129.524 93.652 129.317 93.8027 129.163C94.1027 128.853 94.0867 128.421 94.0867 127.577L94.0867 120.879L98.6307 127.991C99.416 129.231 99.6667 129.524 100.419 129.524C102.005 129.524 101.855 127.801 101.855 126.993L101.855 118.743" fill="#2197d5" fill-rule="nonzero" opacity="1" stroke="none" vectornator:layerName="path"/>
<path d="M106.648 129.524C107.048 129.524 107.349 129.335 107.533 129.145C107.851 128.8 107.833 128.353 107.833 127.457L107.833 118.847C107.833 117.968 107.851 117.504 107.516 117.16C107.281 116.917 106.949 116.78 106.631 116.78C106.229 116.78 105.929 116.987 105.745 117.176C105.428 117.504 105.428 117.951 105.428 118.847L105.428 127.457C105.428 128.336 105.411 128.835 105.745 129.145C105.996 129.387 106.331 129.524 106.648 129.524" fill="#2197d5" fill-rule="nonzero" opacity="1" stroke="none" vectornator:layerName="path"/>
<path d="M114.247 124.477L116.017 119.416L117.84 124.477L114.247 124.477ZM118.14 119.105C118.04 118.829 117.673 117.883 117.589 117.727C117.187 116.987 116.569 116.78 116.035 116.78C115.601 116.78 115.251 116.953 114.983 117.141C114.581 117.417 114.415 117.935 113.963 119.121L110.889 127.131C110.655 127.732 110.556 128.043 110.556 128.421C110.556 128.921 111.007 129.524 111.708 129.524C112.459 129.524 112.643 129.111 113.061 127.957L113.628 126.408L118.475 126.408L119.059 127.921C119.493 129.059 119.677 129.524 120.445 129.524C121.197 129.524 121.631 128.871 121.631 128.387C121.631 127.991 121.499 127.629 121.28 127.061L118.14 119.105" fill="#2197d5" fill-rule="nonzero" opacity="1" stroke="none" vectornator:layerName="path"/>
<path d="M134.292 118.743C134.292 117.899 134.292 117.452 133.992 117.141C133.775 116.917 133.457 116.78 133.156 116.78C132.756 116.78 132.488 116.987 132.321 117.16C132.037 117.469 132.037 118.088 132.037 118.227L132.037 125.545L127.393 118.277C127.176 117.951 126.843 117.417 126.724 117.28C126.473 116.969 126.189 116.78 125.705 116.78C125.204 116.78 124.904 117.004 124.753 117.141C124.269 117.572 124.269 117.951 124.269 119.244L124.269 127.577C124.269 128.405 124.285 128.835 124.569 129.163C124.788 129.403 125.104 129.524 125.404 129.524C125.805 129.524 126.089 129.317 126.24 129.163C126.541 128.853 126.524 128.421 126.524 127.577L126.524 120.879L131.068 127.991C131.853 129.231 132.104 129.524 132.856 129.524C134.443 129.524 134.292 127.801 134.292 126.993L134.292 118.743" fill="#2197d5" fill-rule="nonzero" opacity="1" stroke="none" vectornator:layerName="path"/>
<path d="M145.752 123.065C145.116 122.549 144.415 122.205 142.427 121.723C141.173 121.412 139.836 121.103 139.836 120.001C139.836 119.02 140.905 118.553 141.925 118.553C143.463 118.553 143.864 119.416 144.064 119.828C144.38 120.5 144.597 120.947 145.249 120.947C145.968 120.947 146.352 120.26 146.352 119.795C146.352 119.139 145.652 116.78 142.075 116.78C139.252 116.78 137.581 118.157 137.581 120.224C137.581 121.431 138.149 122.221 138.751 122.721C139.285 123.151 139.871 123.445 141.624 123.875C143.111 124.22 144.483 124.548 144.483 125.891C144.483 127.147 143.195 127.699 142.043 127.699C140.371 127.699 139.871 126.648 139.671 126.149C139.301 125.269 139.119 124.804 138.451 124.804C137.732 124.804 137.347 125.391 137.347 125.891C137.347 126.596 137.983 129.524 142.125 129.524C145.233 129.524 146.853 127.768 146.853 125.615C146.853 124.995 146.669 123.807 145.752 123.065" fill="#2197d5" fill-rule="nonzero" opacity="1" stroke="none" vectornator:layerName="path"/>
<path d="M190.177 75.3894C190.023 75.704 189.88 76.0654 189.745 76.4454C189.877 76.124 190.02 75.7827 190.177 75.3894" fill="#d3e737" fill-rule="nonzero" opacity="1" stroke="none" vectornator:layerName="path"/>
<path d="M184.39 54.1761C161.926 55.0294 136.859 74.444 122.85 89.696L135.967 89.696C151.606 72.7054 172.198 61.6894 185.453 60.6961C210.05 58.8547 219.153 73.8894 216.699 83.2467C214.494 91.6627 203.705 94.284 194.939 87.372C198.303 95.5227 211.918 99.94 219.822 90.12C229.67 77.8827 218.409 52.8841 184.39 54.1761" fill="#f0db07" fill-rule="nonzero" opacity="1" stroke="none" vectornator:layerName="path"/>
<path d="M180.196 28.0961C122.571 27.9494 79.404 79.0827 70.068 89.696L83.264 89.696C93.3413 78.5254 132.079 34.7401 181.259 34.6161C243.509 34.4588 263.557 91.8107 229.876 110.963C213.04 120.535 190.689 109.465 188.677 88.4307C188.296 84.436 188.909 80.0334 190.177 75.3894C188.395 79.824 188.301 79.0027 186.796 88.14C186.673 88.888 186.597 89.644 186.547 90.4054C186.541 90.5 186.536 90.596 186.531 90.6907C186.527 90.7667 186.521 90.8427 186.517 90.92C186.481 91.6747 186.465 92.436 186.491 93.2107L186.491 93.2107C186.492 93.2867 186.496 93.364 186.497 93.436C186.497 93.4374 186.497 93.4387 186.497 93.44C186.525 94.12 186.58 94.812 186.651 95.512C186.669 95.696 186.693 95.884 186.715 96.072C186.776 96.5987 186.847 97.1307 186.931 97.6707C186.955 97.8347 186.983 98 187.009 98.1654C187.02 98.228 187.029 98.2907 187.04 98.3534C187.129 98.888 187.229 99.4307 187.339 99.9787C187.532 100.941 187.741 101.921 187.987 102.936C188.663 105.72 189.688 108.357 190.991 110.815C199.031 121.42 216.653 127.167 233.168 118.02C274.088 95.3614 251.86 28.2788 180.196 28.0961" fill="#9ed645" fill-rule="nonzero" opacity="1" stroke="none" vectornator:layerName="path"/>
<path d="M178.072 15.5734C103.543 14.8014 52.2653 79.9667 44.3853 89.696L57.4453 89.696C66.5693 78.8934 113.589 21.5694 179.135 22.0934C260.211 22.4774 284.417 100.323 235.483 125.007C214.825 135.427 192.796 122.768 187.987 102.936C186.643 97.3867 186.052 92.6574 186.796 88.14C188.301 79.0027 188.395 79.824 190.177 75.3894C185.48 82.2414 183.787 86.6254 182.783 95.2C182.661 96.2334 182.584 97.26 182.533 98.2814C182.493 99.1054 182.487 99.9213 182.495 100.733C182.496 100.881 182.488 101.032 182.491 101.179C182.643 108.879 184.853 116.001 188.543 122.08C199.227 136.587 219.512 141.824 239.093 132.236C295.576 104.575 268.561 16.3281 178.072 15.5734" fill="#00aaaf" fill-rule="nonzero" opacity="1" stroke="none" vectornator:layerName="path"/>
<path d="M175.947 2.01479C78.9347 0.686796 17.5573 89.696 17.5573 89.696L30.68 89.696C35.5373 83.4467 91.8907 7.49612 177.009 8.53479C276.913 9.66145 306.253 108.695 241.724 138.237C211.252 152.188 179.015 127.4 182.783 95.2C183.787 86.6254 185.48 82.2414 190.177 75.3894C190.177 75.3894 179.191 70.936 170.909 74.6894C160.563 79.3774 159.733 88.4067 159.079 93.1654C158.367 98.34 160.389 104.324 161.597 107.828C173.108 141.191 212.423 159.799 244.847 145.111C316.884 112.476 285.265 3.51213 175.947 2.01479" fill="#2197d5" fill-rule="nonzero" opacity="1" stroke="none" vectornator:layerName="path"/>
<path d="M182.32 41.1361C141.719 41.5254 107.671 77.6214 96.6453 89.696L109.912 89.696C122.417 76.0827 151.876 48.2934 183.383 47.6561C226.812 46.7787 242.1 83.4654 224.043 97.8107C214.264 105.581 203.081 103.249 196.203 96.844C191.04 92.036 188.419 84.912 189.487 78.2334L189.487 78.2334L189.487 78.2347C188.884 81.0094 188.557 83.6787 188.577 86.2107L188.577 86.2107C188.601 87.1054 188.653 88.012 188.741 88.9267C188.82 89.628 188.923 90.3174 189.044 90.996C189.053 91.044 189.063 91.092 189.072 91.14C189.189 91.768 189.324 92.3867 189.479 92.9934C189.487 93.0334 189.499 93.072 189.508 93.112C189.519 93.148 189.528 93.184 189.537 93.22C189.687 93.796 189.855 94.364 190.036 94.9214C190.065 95.012 190.095 95.1014 190.124 95.1907C190.308 95.7334 190.505 96.264 190.717 96.7867C190.725 96.8054 190.732 96.824 190.74 96.8427C190.769 96.9147 190.797 96.988 190.827 97.06C191.045 97.5854 191.281 98.0987 191.528 98.604C191.537 98.6214 191.544 98.6414 191.553 98.66C191.581 98.7174 191.608 98.776 191.637 98.8334C191.679 98.916 191.733 99.0307 191.792 99.1574C192.264 100.071 192.789 100.943 193.347 101.784C200.861 109.663 213.752 114.245 226.677 105.772C251.739 89.344 235.159 40.6294 182.32 41.1361" fill="#d0e32d" fill-rule="nonzero" opacity="1" stroke="none" vectornator:layerName="path"/>
</g>
</g>
</svg>
